<svg fill="none" xmlns="http://www.w3.org/2000/svg" viewBox="0 0 801 247">
  <g clip-path="url(#clip0)" fill="#222C33">
    <path d="M667.877 5.186C579.044 5.186 532.9 58.84 532.9 126.635c0 67.795 45.8 120.337 132.6 120.337 86.666 0 134.976-50.1 134.976-117.741C800.471 61.437 756.85 5.186 667.877 5.186zM706.7 123.957c0 58.34-3.065 105.836-41.048 105.836-37.9 0-38.993-48.117-38.993-106.613 0-58.6 3.065-100.814 41.048-100.814 37.983 0 38.993 43.095 38.993 101.591zM522.4 183.538l-1.556.88c-28.034 15.746-49.986 17-71.553 9.9-29.95-10.217-50.053-35.525-56.831-62.353 77.571-13.298 120.34-27.324 126.04-55.994 3.6-23.98-14.045-70.856-85.968-70.856-59.046 0-89.013 27.712-97.027 37.5-25.741 31.432-34.171 67.711-28.364 107.509 7.948 54.473 57.661 102.5 125.269 96.311 33.877-3.1 74.724-26.333 95.2-51.319a129.441 129.441 0 01-5.21-11.578zM397.94 36.874c5.619-9.323 16.21-14.505 26.88-14.505 12.917 0 22.487 9.848 25.651 16.621 4.637 9.926 5.925 23.565 2.916 36.925-3.428 15.223-13.348 32.3-64.568 40.658-3.819-35.406-.082-64.431 9.121-79.699zM12 236.776V224.13c20.2-3.421 29.331-8.835 29.331-30.783v-88.515c0-15.33-5.219-25.432-16.548-34.345A87.877 87.877 0 000 57.2C45.613 46.738 86.188 27.855 121.629 0l.035 42.552c15.575-17.784 48.679-37.378 86.4-37.376 44.508 0 74.958 21.318 74.958 74.26 0 30.478-.043 98.049-.043 113.911 0 23.961 11.886 27.692 29.341 30.787v12.659l-117.189-.007s.042-94.573.044-138.5c.002-43.927-12.669-53.323-30.915-53.324-18.776 0-34.658 9.481-34.658 55.807 0 0-.04 67.86-.042 92.578-.002 24.718 12.265 27.278 29.332 30.779v12.658L12 236.776z"/>
  </g>
  <defs>
    <clipPath id="clip0">
      <path fill="#fff" d="M0 0h800.471v246.972H0z"/>
    </clipPath>
  </defs>
</svg>
